<?xml version="1.0" standalone="no"?><!DOCTYPE svg PUBLIC "-//W3C//DTD SVG 1.1//EN" "http://www.w3.org/Graphics/SVG/1.1/DTD/svg11.dtd"><svg t="1583219686958" class="icon" viewBox="0 0 1024 1024" version="1.1" xmlns="http://www.w3.org/2000/svg" p-id="3827" xmlns:xlink="http://www.w3.org/1999/xlink" width="128" height="128"><defs><style type="text/css"></style></defs><path d="M864.306 218.412H776.23l-29.358-58.718c-17.303-34.147-26.291-58.718-58.719-58.718H335.847c-32.441 0-43.149 28.011-58.718 58.718l-29.359 58.718h-88.077c-64.853 0-117.435 52.582-117.435 117.435v469.742c0 64.853 52.582 117.435 117.435 117.435h704.612c64.854 0 117.436-52.582 117.436-117.435V335.847c0-64.853-52.582-117.435-117.435-117.435z m58.717 587.177c0 32.427-26.291 58.718-58.718 58.718H159.694c-32.426 0-58.717-26.291-58.717-58.718V335.847c0-32.426 26.291-58.717 58.717-58.717H277.13l29.359-58.718c20.757-34.147 26.276-58.718 58.717-58.718h293.588c32.427 0 37.96 24.571 58.718 58.718l29.359 58.718h117.435c32.427 0 58.718 26.291 58.718 58.717v469.742zM512 335.847c-129.721 0-234.871 105.165-234.871 234.871S382.279 805.589 512 805.589c129.707 0 234.871-105.165 234.871-234.871S641.707 335.847 512 335.847z m0 411.024c-97.294 0-176.153-78.873-176.153-176.153 0-97.28 78.859-176.153 176.153-176.153 97.279 0 176.152 78.873 176.152 176.153 0 97.28-78.873 176.153-176.152 176.153z" p-id="3828" fill="#ffffff"></path></svg>