<?xml version="1.0" standalone="no"?><!DOCTYPE svg PUBLIC "-//W3C//DTD SVG 1.1//EN" "http://www.w3.org/Graphics/SVG/1.1/DTD/svg11.dtd"><svg t="1583215161934" class="icon" viewBox="0 0 1024 1024" version="1.1" xmlns="http://www.w3.org/2000/svg" p-id="2353" xmlns:xlink="http://www.w3.org/1999/xlink" width="256" height="256"><defs><style type="text/css"></style></defs><path d="M1.056 512.059C1.056 794.209 229.852 1023 511.997 1023c282.151 0 510.947-228.791 510.947-510.941C1023.056 229.796 794.265 1 511.997 1 229.852 1 1.056 229.796 1.056 512.059z m0 0" fill="#F5F6FD" p-id="2354"></path><path d="M886.858 857.199C873.203 785.488 747.219 716.989 634.2 679.58c-5.51-1.837-39.93-17.323-18.363-82.612h-0.226c56.105-57.717 99.019-150.655 99.019-242.107 0-140.555-93.628-214.334-202.516-214.334-108.893 0-202.063 73.665-202.063 214.334 0 91.796 42.687 185.079 99.139 242.678 22.03 57.602-17.324 79.058-25.586 82.041-107.513 38.782-232.464 107.741-246.237 177.619C53.035 766.323 1.056 644.928 1.056 511.256 1.056 229.452 229.852 1 511.997 1c282.151 0 510.947 228.452 510.947 510.256 0.112 133.672-51.867 254.954-136.086 345.943" fill="#cccccc" p-id="2355"></path></svg>